<svg width="21" height="21" viewBox="0 0 21 21" fill="none" xmlns="http://www.w3.org/2000/svg">
<path d="M10.5 0C6.64024 0 3.49996 3.14028 3.49996 7.00001C3.49996 8.15871 3.78966 9.30755 4.34037 10.3265L10.1172 20.7744C10.1941 20.9137 10.3406 21 10.5 21C10.6593 21 10.8059 20.9137 10.8828 20.7744L16.6617 10.3231C17.2103 9.30755 17.5 8.15866 17.5 6.99997C17.5 3.14028 14.3597 0 10.5 0ZM10.5 10.5C8.57011 10.5 6.99999 8.92988 6.99999 7.00001C6.99999 5.07015 8.57011 3.50003 10.5 3.50003C12.4298 3.50003 14 5.07015 14 7.00001C14 8.92988 12.4298 10.5 10.5 10.5Z" fill="#909090"/>
</svg>
